<svg xmlns="http://www.w3.org/2000/svg" width="1024" height="1024" viewBox="0 0 1024 1024">
  <!-- Get Frames app icon: the Lucide clapperboard (ISC) on the Dan Tech green -->
  <defs>
    <linearGradient id="bg" x1="0" y1="0" x2="0" y2="1">
      <stop offset="0" stop-color="#5bd04b"/>
      <stop offset="1" stop-color="#2f9e22"/>
    </linearGradient>
    <filter id="shadow" x="-10%" y="-10%" width="120%" height="125%">
      <feDropShadow dx="0" dy="14" stdDeviation="18" flood-color="#000" flood-opacity="0.28"/>
    </filter>
  </defs>
  <rect x="100" y="100" width="824" height="824" rx="185" fill="url(#bg)" filter="url(#shadow)"/>
  <g transform="translate(232 222) scale(23.3)" fill="none" stroke="#ffffff" stroke-width="1.9" stroke-linecap="round" stroke-linejoin="round">
    <path d="m12.296 3.464 3.02 3.956"/>
    <path d="M20.2 6 3 11l-.9-2.4c-.3-1.1.3-2.2 1.3-2.5l13.5-4c1.1-.3 2.2.3 2.5 1.3z"/>
    <path d="M3 11h18v8a2 2 0 0 1-2 2H5a2 2 0 0 1-2-2z"/>
    <path d="m6.18 5.276 3.1 3.899"/>
  </g>
</svg>
